<?xml version="1.0" encoding="UTF-8" standalone="no"?>
<!-- Created with Inkscape (http://www.inkscape.org/) -->
<svg
   xmlns:dc="http://purl.org/dc/elements/1.1/"
   xmlns:cc="http://creativecommons.org/ns#"
   xmlns:rdf="http://www.w3.org/1999/02/22-rdf-syntax-ns#"
   xmlns:svg="http://www.w3.org/2000/svg"
   xmlns="http://www.w3.org/2000/svg"
   xmlns:sodipodi="http://sodipodi.sourceforge.net/DTD/sodipodi-0.dtd"
   xmlns:inkscape="http://www.inkscape.org/namespaces/inkscape"
   width="68.694687"
   height="68.694649"
   id="svg3290"
   sodipodi:version="0.32"
   inkscape:version="0.46"
   version="1.0"
   sodipodi:docname="Chipotle Mexican Grill logo.svg"
   inkscape:output_extension="org.inkscape.output.svg.inkscape">
  <defs
     id="defs3292">
    <inkscape:perspective
       sodipodi:type="inkscape:persp3d"
       inkscape:vp_x="0 : 526.18109 : 1"
       inkscape:vp_y="0 : 1000 : 0"
       inkscape:vp_z="744.09448 : 526.18109 : 1"
       inkscape:persp3d-origin="372.04724 : 350.78739 : 1"
       id="perspective3298" />
    <inkscape:perspective
       id="perspective3307"
       inkscape:persp3d-origin="372.04724 : 350.78739 : 1"
       inkscape:vp_z="744.09448 : 526.18109 : 1"
       inkscape:vp_y="0 : 1000 : 0"
       inkscape:vp_x="0 : 526.18109 : 1"
       sodipodi:type="inkscape:persp3d" />
  </defs>
  <sodipodi:namedview
     id="base"
     pagecolor="#ffffff"
     bordercolor="#666666"
     borderopacity="1.0"
     gridtolerance="10000"
     guidetolerance="10"
     objecttolerance="10"
     inkscape:pageopacity="0.0"
     inkscape:pageshadow="2"
     inkscape:zoom="7.3950447"
     inkscape:cx="34.347343"
     inkscape:cy="34.347324"
     inkscape:document-units="px"
     inkscape:current-layer="layer1"
     showgrid="false"
     inkscape:window-width="1024"
     inkscape:window-height="721"
     inkscape:window-x="-4"
     inkscape:window-y="-4" />
  <metadata
     id="metadata3295">
    <rdf:RDF>
      <cc:Work
         rdf:about="">
        <dc:format>image/svg+xml</dc:format>
        <dc:type
           rdf:resource="http://purl.org/dc/dcmitype/StillImage" />
      </cc:Work>
    </rdf:RDF>
  </metadata>
  <g
     inkscape:label="Layer 1"
     inkscape:groupmode="layer"
     id="layer1"
     transform="translate(-402.08504,-343.01242)">
    <path
       style="fill:#a81612;fill-opacity:1;fill-rule:nonzero;stroke:#4b2c1a;stroke-width:0;stroke-linecap:butt;stroke-linejoin:miter;marker:none;marker-start:none;marker-mid:none;marker-end:none;stroke-miterlimit:4;stroke-dashoffset:0;stroke-opacity:1;visibility:visible;display:inline;overflow:visible;enable-background:accumulate"
       d="M 466.11986,377.35975 C 466.11986,393.74723 452.81986,407.04721 436.43238,407.04721 C 420.0449,407.04721 406.74491,393.74723 406.74491,377.35975 C 406.74491,360.97226 420.0449,347.67228 436.43238,347.67228 C 452.81986,347.67228 466.11986,360.97226 466.11986,377.35975 z"
       id="path3938" />
    <path
       style="fill:#ffffff;fill-opacity:1;fill-rule:nonzero;stroke:#4b2c1a;stroke-width:0;stroke-linecap:butt;stroke-linejoin:miter;marker:none;marker-start:none;marker-mid:none;marker-end:none;stroke-miterlimit:4;stroke-dashoffset:0;stroke-opacity:1;visibility:visible;display:inline;overflow:visible;enable-background:accumulate"
       d="M 454.42945,377.35975 C 454.42945,387.29413 446.36676,395.35682 436.43238,395.35682 C 426.49801,395.35682 418.43531,387.29413 418.43531,377.35975 C 418.43531,367.42537 426.49801,359.36268 436.43238,359.36268 C 446.36676,359.36268 454.42945,367.42537 454.42945,377.35975 z"
       id="path3936" />
    <path
       style="fill:#451400;fill-opacity:1;fill-rule:nonzero;stroke:#4b2c1a;stroke-width:0;stroke-linecap:butt;stroke-linejoin:miter;marker:none;marker-start:none;marker-mid:none;marker-end:none;stroke-miterlimit:4;stroke-dashoffset:0;stroke-opacity:1;visibility:visible;display:inline;overflow:visible;enable-background:accumulate"
       d="M 453.09633,377.35975 C 453.09633,386.55824 445.63089,394.0237 436.43238,394.0237 C 427.23388,394.0237 419.76844,386.55824 419.76844,377.35975 C 419.76844,368.16125 427.23388,360.69579 436.43238,360.69579 C 445.63089,360.69579 453.09633,368.16125 453.09633,377.35975 z"
       id="path3934" />
    <path
       style="font-size:1014.75146484px;font-style:normal;font-weight:normal;text-align:start;line-height:125%;text-anchor:start;fill:#ffffff;fill-opacity:1;stroke:none;stroke-width:1px;stroke-linecap:butt;stroke-linejoin:miter;stroke-opacity:1;font-family:Bitstream Vera Sans"
       d="M 418.03616,369.82697 C 417.82182,370.27651 417.53958,370.65563 417.18945,370.96437 C 416.83932,371.2731 416.45332,371.50129 416.03148,371.64896 C 415.60962,371.79662 415.16496,371.85901 414.69748,371.83611 C 414.22999,371.81319 413.77342,371.69923 413.32775,371.4942 L 413.30978,371.48594 C 412.86414,371.28092 412.4842,371.01004 412.16999,370.67332 C 411.85579,370.33661 411.61839,369.96044 411.45781,369.54482 C 411.29724,369.12921 411.2255,368.68685 411.2426,368.21772 C 411.25971,367.74861 411.38098,367.27762 411.60645,366.80475 C 411.74288,366.5186 411.89122,366.26826 412.05148,366.05367 C 412.21174,365.83911 412.37943,365.65463 412.55455,365.50022 C 412.7297,365.34585 412.91569,365.21427 413.11253,365.10548 C 413.30939,364.99672 413.51248,364.9051 413.72181,364.83064 L 414.32015,366.15232 C 413.98594,366.29057 413.6973,366.45504 413.45421,366.64572 C 413.21111,366.83641 413.0158,367.08651 412.86822,367.39599 C 412.74573,367.65292 412.68281,367.91407 412.67948,368.17943 C 412.67615,368.44479 412.72604,368.69733 412.82916,368.93704 C 412.93227,369.17675 413.08036,369.3944 413.2734,369.59 C 413.46645,369.7856 413.69675,369.94494 413.96429,370.06801 L 413.98198,370.07614 C 414.24952,370.19925 414.52304,370.27169 414.80249,370.29345 C 415.08195,370.31526 415.34774,370.28978 415.59981,370.21706 C 415.85189,370.14437 416.08215,370.02244 416.29059,369.85133 C 416.49902,369.68022 416.66585,369.46334 416.79107,369.20071 C 416.95809,368.85042 417.03398,368.52406 417.01873,368.22157 C 417.00349,367.9191 416.94005,367.59618 416.8284,367.25282 L 418.1202,366.8007 C 418.21732,367.03767 418.29394,367.27224 418.34999,367.50441 C 418.40604,367.7366 418.43508,367.97596 418.43708,368.22248 C 418.43908,368.46901 418.40827,368.72358 418.34464,368.98619 C 418.28103,369.24882 418.1782,369.52906 418.03616,369.82697 L 418.03616,369.82697 z"
       id="text3313" />
    <path
       style="font-size:1014.7512207px;font-style:normal;font-weight:normal;text-align:start;line-height:125%;text-anchor:start;fill:#ffffff;fill-opacity:1;stroke:none;stroke-width:1px;stroke-linecap:butt;stroke-linejoin:miter;stroke-opacity:1;font-family:Bitstream Vera Sans"
       d="M 415.02302,360.87462 L 416.07527,359.78322 L 418.35406,362.06169 L 420.54005,359.80347 L 418.26124,357.48994 L 419.20832,356.6089 L 424.0644,361.39214 L 423.29264,362.37835 L 421.44127,360.66859 L 419.22022,362.82162 L 421.03654,364.56645 L 419.9843,365.65785 L 415.02302,360.87462 z"
       id="text3318"
       sodipodi:nodetypes="ccccccccccccc" />
    <path
       style="font-size:938.12438965px;font-style:normal;font-weight:normal;text-align:start;line-height:125%;text-anchor:start;fill:#ffffff;fill-opacity:1;stroke:none;stroke-width:1px;stroke-linecap:butt;stroke-linejoin:miter;stroke-opacity:1;font-family:Bitstream Vera Sans"
       d="M 423.24496,353.83881 L 424.38432,353.22161 L 427.63176,359.29971 L 426.4924,359.91691 L 423.24496,353.83881 z"
       id="text3322" />
    <path
       style="font-size:1019.20373535px;font-style:normal;font-weight:normal;text-align:start;line-height:125%;text-anchor:start;fill:#ffffff;fill-opacity:1;stroke:none;stroke-width:1px;stroke-linecap:butt;stroke-linejoin:miter;stroke-opacity:1;font-family:Bitstream Vera Sans"
       d="M 431.88899,354.39697 C 432.27446,354.32375 432.58901,354.17108 432.76067,353.93897 C 432.93233,353.70688 432.98794,353.44937 432.92753,353.16645 L 432.92354,353.14775 C 432.85373,352.82092 432.68942,352.59377 432.43063,352.46628 C 432.17184,352.33881 431.81372,352.31171 431.42826,352.38493 L 430.24235,352.61023 L 430.67328,354.62794 L 431.88899,354.39697 z M 428.42768,351.59127 L 431.27794,351.04979 C 431.69666,350.97025 432.08222,350.95424 432.43461,351.00174 C 432.787,351.04927 433.13526,351.15181 433.40744,351.30936 C 433.67963,351.46693 433.90703,351.67392 434.08966,351.93031 C 434.27228,352.18673 434.39983,352.48458 434.4723,352.82388 L 434.47636,352.84287 C 434.55823,353.22629 434.55696,353.57642 434.47249,353.89324 C 434.38802,354.21008 434.23869,354.49023 434.02454,354.73368 C 433.81035,354.97717 433.5066,355.18012 433.18524,355.34256 C 432.86387,355.50501 432.5072,355.62346 432.11525,355.69793 L 430.73325,355.99141 L 431.12008,358.07907 L 429.80118,358.2987 L 428.42768,351.59127 z"
       id="text3327"
       sodipodi:nodetypes="csccsccccccsssccsssccccc" />
    <path
       style="font-size:1019.20373535px;font-style:normal;font-weight:normal;text-align:start;line-height:125%;text-anchor:start;fill:#ffffff;fill-opacity:1;stroke:none;stroke-width:1px;stroke-linecap:butt;stroke-linejoin:miter;stroke-opacity:1;font-family:Bitstream Vera Sans"
       d="M 441.3425,352.21045 C 441.04098,352.13136 440.75017,352.11341 440.47004,352.15662 C 440.18993,352.19981 439.93815,352.29508 439.71467,352.44238 C 439.49122,352.58968 439.30035,352.77815 439.14205,353.00781 C 438.98377,353.23746 438.87233,353.49819 438.80771,353.79002 L 438.80338,353.80962 C 438.73877,354.10143 438.72851,354.39044 438.77256,354.67663 C 438.81665,354.96281 438.91058,355.22773 439.05435,355.47136 C 439.19815,355.71499 439.38533,355.92711 439.61588,356.10773 C 439.84646,356.28835 440.11249,356.4182 440.41401,356.49729 C 440.72214,356.5781 441.01465,356.5965 441.29157,356.55245 C 441.5685,356.50841 441.81863,356.41272 442.04199,356.26541 C 442.26534,356.11807 442.45622,355.9296 442.61461,355.69996 C 442.77299,355.47035 442.88451,355.20952 442.94917,354.9175 L 442.95344,354.8982 C 443.01809,354.60617 443.02832,354.3171 442.98413,354.03099 C 442.93993,353.74489 442.84594,353.48002 442.70215,353.23637 C 442.55837,352.99273 442.37284,352.78106 442.14557,352.60129 C 441.91831,352.42156 441.65062,352.29128 441.3425,352.21045 L 441.3425,352.21045 z M 441.66795,350.83377 C 442.19917,350.9731 442.66719,351.19369 443.07202,351.49554 C 443.47687,351.79738 443.80672,352.14816 444.0616,352.54787 C 444.31647,352.94759 444.48701,353.38358 444.57319,353.85582 C 444.65937,354.32808 444.64862,354.80743 444.54091,355.29387 L 444.53657,355.31347 C 444.42887,355.7999 444.23619,356.23152 443.95852,356.60834 C 443.68087,356.98515 443.34422,357.29155 442.94859,357.52755 C 442.55297,357.76355 442.11014,357.91511 441.62012,357.98222 C 441.13011,358.04935 440.61958,358.01327 440.08857,357.87399 C 439.55755,357.73469 439.08959,357.51411 438.68463,357.21225 C 438.2797,356.91036 437.9498,356.55958 437.69491,356.15986 C 437.44005,355.76015 437.26951,355.32417 437.18332,354.85191 C 437.09715,354.37965 437.10793,353.90021 437.21567,353.41357 L 437.21994,353.39428 C 437.32768,352.90763 437.52037,352.47596 437.79802,352.09925 C 438.07566,351.72253 438.41231,351.41618 438.80792,351.18018 C 439.20356,350.94418 439.64637,350.79262 440.13639,350.72551 C 440.62642,350.6584 441.13694,350.69448 441.66795,350.83377 L 441.66795,350.83377 z"
       id="text3331" />
    <path
       style="font-size:1019.20379639px;font-style:normal;font-weight:normal;text-align:start;line-height:125%;text-anchor:start;fill:#ffffff;fill-opacity:1;stroke:none;stroke-width:1px;stroke-linecap:butt;stroke-linejoin:miter;stroke-opacity:1;font-family:Bitstream Vera Sans"
       d="M 449.33504,354.97171 L 447.28511,353.75693 L 447.94655,352.75889 L 452.94057,355.72683 L 452.27913,356.76084 L 450.55299,355.65398 L 447.56049,360.49876 L 446.37851,359.8165 L 449.33504,354.97171 z"
       id="text3335"
       sodipodi:nodetypes="ccccccccc" />
    <path
       style="font-size:1019.20391846px;font-style:normal;font-weight:normal;text-align:start;line-height:125%;text-anchor:start;fill:#ffffff;fill-opacity:1;stroke:none;stroke-width:1px;stroke-linecap:butt;stroke-linejoin:miter;stroke-opacity:1;font-family:Bitstream Vera Sans"
       d="M 455.8076,358.288 L 456.73458,359.34522 L 452.41139,362.99833 L 454.81923,365.7205 L 453.72932,366.53493 L 450.61038,362.8635 L 455.8076,358.288 z"
       id="text3339"
       sodipodi:nodetypes="ccccccc" />
    <path
       style="font-size:1019.20391846px;font-style:normal;font-weight:normal;text-align:start;line-height:125%;text-anchor:start;fill:#ffffff;fill-opacity:1;stroke:none;stroke-width:1px;stroke-linecap:butt;stroke-linejoin:miter;stroke-opacity:1;font-family:Bitstream Vera Sans"
       d="M 460.99607,365.47068 L 462.85109,370.18489 L 461.72708,370.58958 L 460.32717,367.15525 L 458.51083,367.86508 L 459.57575,370.61805 L 458.38006,371.02264 L 457.31513,368.26967 L 456.10138,368.74507 L 457.59047,372.2991 L 456.39477,372.70368 L 454.52251,367.86975 L 460.99607,365.47068 z"
       id="text3343"
       sodipodi:nodetypes="ccccccccccccc" />
    <path
       sodipodi:type="arc"
       style="opacity:1;fill:#ffffff;fill-opacity:1;fill-rule:nonzero;stroke:#4b2c1a;stroke-width:0;stroke-linecap:butt;stroke-linejoin:miter;marker:none;marker-start:none;marker-mid:none;marker-end:none;stroke-miterlimit:4;stroke-dasharray:none;stroke-dashoffset:0;stroke-opacity:1;visibility:visible;display:inline;overflow:visible;enable-background:accumulate"
       id="path3349"
       sodipodi:cx="45.26482"
       sodipodi:cy="398.73819"
       sodipodi:rx="15.390038"
       sodipodi:ry="15.390038"
       d="M 60.654858,398.73819 A 15.390038,15.390038 0 1 1 29.874783,398.73819 A 15.390038,15.390038 0 1 1 60.654858,398.73819 z"
       transform="matrix(4.5198924e-2,0,0,4.5198924e-2,410.75498,359.6947)" />
    <path
       sodipodi:type="arc"
       style="opacity:1;fill:#ffffff;fill-opacity:1;fill-rule:nonzero;stroke:#4b2c1a;stroke-width:0;stroke-linecap:butt;stroke-linejoin:miter;marker:none;marker-start:none;marker-mid:none;marker-end:none;stroke-miterlimit:4;stroke-dasharray:none;stroke-dashoffset:0;stroke-opacity:1;visibility:visible;display:inline;overflow:visible;enable-background:accumulate"
       id="path3351"
       sodipodi:cx="45.26482"
       sodipodi:cy="398.73819"
       sodipodi:rx="15.390038"
       sodipodi:ry="15.390038"
       d="M 60.654858,398.73819 A 15.390038,15.390038 0 1 1 29.874783,398.73819 A 15.390038,15.390038 0 1 1 60.654858,398.73819 z"
       transform="matrix(4.5198924e-2,0,0,4.5198924e-2,458.30713,359.6947)" />
    <path
       style="font-size:563.45202637px;font-style:normal;font-weight:normal;text-align:start;line-height:125%;text-anchor:start;fill:#ffffff;fill-opacity:1;stroke:none;stroke-width:1px;stroke-linecap:butt;stroke-linejoin:miter;stroke-opacity:1;font-family:Bitstream Vera Sans"
       d="M 415.74507,383.23648 L 416.06334,384.08619 L 414.90076,385.59568 L 416.76899,385.97011 L 417.08727,386.81982 L 413.50377,388.16206 L 413.21043,387.3789 L 415.54989,386.50262 L 413.64143,386.06738 L 413.63377,386.04691 L 414.77524,384.48104 L 412.45107,385.35157 L 412.16159,384.57873 L 415.74507,383.23648 z"
       id="text3353" />
    <path
       style="font-size:563.45202637px;font-style:normal;font-weight:normal;text-align:start;line-height:125%;text-anchor:start;fill:#ffffff;fill-opacity:1;stroke:none;stroke-width:1px;stroke-linecap:butt;stroke-linejoin:miter;stroke-opacity:1;font-family:Bitstream Vera Sans"
       d="M 418.03199,388.53574 L 419.65515,390.9223 L 419.03578,391.34355 L 417.88294,389.6485 L 417.24109,390.08504 L 418.25555,391.57663 L 417.63633,391.99777 L 416.62187,390.50619 L 415.95739,390.95811 L 417.12562,392.67578 L 416.50639,393.09694 L 414.86786,390.68775 L 418.03199,388.53574 z"
       id="text3357" />
    <path
       style="font-size:563.45202637px;font-style:normal;font-weight:normal;text-align:start;line-height:125%;text-anchor:start;fill:#ffffff;fill-opacity:1;stroke:none;stroke-width:1px;stroke-linecap:butt;stroke-linejoin:miter;stroke-opacity:1;font-family:Bitstream Vera Sans"
       d="M 420.42806,394.44107 L 420.74788,392.18924 L 421.47567,392.85164 L 421.23463,394.31031 L 422.66819,393.93704 L 423.37575,394.58103 L 421.17127,395.10263 L 420.84036,397.44769 L 420.11271,396.78539 L 420.36112,395.23757 L 418.83924,395.62633 L 418.13181,394.98246 L 420.42806,394.44107 z"
       id="text3361" />
    <path
       style="font-size:563.4520874px;font-style:normal;font-weight:normal;text-align:start;line-height:125%;text-anchor:start;fill:#ffffff;fill-opacity:1;stroke:none;stroke-width:1px;stroke-linecap:butt;stroke-linejoin:miter;stroke-opacity:1;font-family:Bitstream Vera Sans"
       d="M 424.93228,395.74715 L 425.64695,396.19195 L 423.62498,399.44072 L 422.9103,398.99593 L 424.93228,395.74715 z"
       id="text3365" />
    <path
       style="font-size:563.4520874px;font-style:normal;font-weight:normal;text-align:start;line-height:125%;text-anchor:start;fill:#ffffff;fill-opacity:1;stroke:none;stroke-width:1px;stroke-linecap:butt;stroke-linejoin:miter;stroke-opacity:1;font-family:Bitstream Vera Sans"
       d="M 427.90677,401.49728 C 427.64194,401.40457 427.41287,401.27031 427.2196,401.09455 C 427.02632,400.91877 426.87632,400.71858 426.76959,400.49397 C 426.66287,400.26937 426.60284,400.0273 426.58947,399.76775 C 426.57611,399.5082 426.61457,399.24946 426.70487,398.99155 L 426.70851,398.98116 C 426.7988,398.72324 426.92981,398.49789 427.10153,398.30507 C 427.27326,398.11227 427.47147,397.95963 427.6962,397.84716 C 427.92093,397.73473 428.16569,397.66981 428.43046,397.65245 C 428.69525,397.63509 428.96693,397.67517 429.24552,397.77271 C 429.4141,397.83173 429.56323,397.89937 429.69289,397.97564 C 429.82256,398.05191 429.93573,398.134 430.03238,398.22193 C 430.12903,398.30986 430.21347,398.40507 430.2857,398.5076 C 430.35792,398.61013 430.42083,398.71708 430.47447,398.82847 L 429.76476,399.23452 C 429.66825,399.05781 429.55955,398.90775 429.43867,398.78436 C 429.31778,398.66096 429.16617,398.56736 428.98384,398.50352 C 428.83247,398.45053 428.68207,398.4307 428.53266,398.44402 C 428.38323,398.45734 428.244,398.49933 428.11499,398.56999 C 427.98596,398.64066 427.87187,398.7349 427.77271,398.85272 C 427.67355,398.97055 427.59686,399.10687 427.54266,399.2617 L 427.53908,399.27193 C 427.48487,399.42677 427.45949,399.58199 427.46292,399.73761 C 427.46636,399.89324 427.49559,400.0386 427.55064,400.17369 C 427.60568,400.30881 427.68716,400.42904 427.7951,400.53439 C 427.90302,400.63976 428.03436,400.71952 428.18908,400.77369 C 428.39545,400.84594 428.58326,400.86922 428.75251,400.84351 C 428.92177,400.8178 429.0998,400.7643 429.28664,400.68301 L 429.61341,401.37078 C 429.4856,401.43798 429.35797,401.4937 429.23055,401.53794 C 429.10312,401.58217 428.97015,401.61189 428.83162,401.62707 C 428.69308,401.64227 428.54818,401.63979 428.39692,401.61966 C 428.24567,401.59951 428.08229,401.55873 427.90677,401.49728 L 427.90677,401.49728 z"
       id="text3369" />
    <path
       style="font-size:563.4520874px;font-style:normal;font-weight:normal;text-align:start;line-height:125%;text-anchor:start;fill:#ffffff;fill-opacity:1;stroke:none;stroke-width:1px;stroke-linecap:butt;stroke-linejoin:miter;stroke-opacity:1;font-family:Bitstream Vera Sans"
       d="M 434.34681,401.20738 L 433.98939,399.91497 L 433.33722,401.08668 L 434.34681,401.20738 z M 433.7349,398.86606 L 434.50564,398.9582 L 435.67649,402.9794 L 434.80272,402.87495 L 434.55708,401.98117 L 432.95048,401.78911 L 432.50125,402.59983 L 431.64901,402.49795 L 433.7349,398.86606 z"
       id="text3373" />
    <path
       style="font-size:563.4520874px;font-style:normal;font-weight:normal;text-align:start;line-height:125%;text-anchor:start;fill:#ffffff;fill-opacity:1;stroke:none;stroke-width:1px;stroke-linecap:butt;stroke-linejoin:miter;stroke-opacity:1;font-family:Bitstream Vera Sans"
       d="M 437.8145,399.10304 L 438.58693,399.0263 L 440.60392,401.19357 L 440.371,398.84905 L 441.19788,398.7669 L 441.5762,402.57477 L 440.86369,402.64555 L 438.77902,400.40806 L 439.01952,402.82877 L 438.19281,402.9109 L 437.8145,399.10304 z"
       id="text3377" />
    <path
       style="font-size:563.4520874px;font-style:normal;font-weight:normal;text-align:start;line-height:125%;text-anchor:start;fill:#ffffff;fill-opacity:1;stroke:none;stroke-width:1px;stroke-linecap:butt;stroke-linejoin:miter;stroke-opacity:1;font-family:Bitstream Vera Sans"
       d="M 447.54148,400.68241 C 447.26853,400.80412 446.99971,400.87013 446.73503,400.88045 C 446.47032,400.89076 446.22164,400.85204 445.98894,400.76425 C 445.75624,400.67646 445.546,400.54277 445.3582,400.36318 C 445.17041,400.18358 445.01863,399.96398 444.90287,399.70435 L 444.89838,399.69429 C 444.7871,399.44471 444.72861,399.19051 444.7229,398.93166 C 444.71721,398.67283 444.75916,398.42467 444.84877,398.1872 C 444.93839,397.94972 445.07355,397.73384 445.25426,397.53951 C 445.43498,397.34521 445.65848,397.18868 445.92481,397.06992 C 446.08124,397.00017 446.22836,396.94755 446.36614,396.91203 C 446.50392,396.87655 446.63663,396.85431 446.76425,396.84531 C 446.89188,396.83631 447.01732,396.84023 447.14056,396.85707 C 447.26381,396.87388 447.38746,396.90057 447.5115,396.93706 L 447.28761,397.7372 C 447.19585,397.71029 447.10703,397.69004 447.02116,397.67645 C 446.93528,397.66288 446.84988,397.65706 446.76495,397.659 C 446.68003,397.66095 446.59227,397.67213 446.50165,397.69258 C 446.41103,397.71301 446.3158,397.74548 446.21595,397.79001 C 446.07609,397.85237 445.95838,397.93976 445.86288,398.0522 C 445.76737,398.16462 445.69575,398.29032 445.64801,398.4293 C 445.60026,398.56828 445.5799,398.71502 445.58693,398.86952 C 445.59395,399.02402 445.63087,399.17618 445.69768,399.326 L 445.70209,399.3359 C 445.77335,399.49569 445.86481,399.63147 445.97652,399.74325 C 446.08822,399.85504 446.21378,399.93969 446.35316,399.99723 C 446.49256,400.0548 446.63858,400.08246 446.79122,400.08027 C 446.94386,400.0781 447.09839,400.04213 447.25482,399.97238 C 447.54107,399.84475 447.75122,399.66721 447.88529,399.43973 L 447.66273,398.94059 L 446.88873,399.28572 L 446.59258,398.62156 L 448.11043,397.94476 L 448.78723,399.4626 C 448.6757,399.69585 448.52008,399.92184 448.32037,400.14058 C 448.12066,400.35931 447.86102,400.53993 447.54148,400.68241 L 447.54148,400.68241 z"
       id="text3381" />
    <path
       style="font-size:563.4520874px;font-style:normal;font-weight:normal;text-align:start;line-height:125%;text-anchor:start;fill:#ffffff;fill-opacity:1;stroke:none;stroke-width:1px;stroke-linecap:butt;stroke-linejoin:miter;stroke-opacity:1;font-family:Bitstream Vera Sans"
       d="M 451.51978,395.81782 C 451.68374,395.69042 451.77943,395.55375 451.80681,395.40783 C 451.83419,395.26191 451.79756,395.12417 451.69691,394.99463 L 451.69027,394.98607 C 451.57849,394.84223 451.4486,394.77008 451.3006,394.76966 C 451.15259,394.76924 450.99657,394.83276 450.83252,394.96023 L 450.17214,395.47333 L 450.84636,396.34106 L 451.51978,395.81782 z M 449.04119,395.38978 L 450.42241,394.31658 C 450.80513,394.0192 451.17807,393.8933 451.54123,393.93887 C 451.84804,393.97738 452.11326,394.14054 452.33686,394.42832 L 452.34352,394.43687 C 452.53362,394.68156 452.62878,394.92726 452.62895,395.17402 C 452.62913,395.42078 452.56078,395.65501 452.42391,395.87671 L 454.00051,396.38237 L 453.22353,396.98606 L 451.82477,396.52222 L 451.81609,396.52898 L 451.30245,396.92807 L 452.05375,397.89498 L 451.38902,398.41147 L 449.04119,395.38978 z"
       id="text3385" />
    <path
       style="font-size:563.4520874px;font-style:normal;font-weight:normal;text-align:start;line-height:125%;text-anchor:start;fill:#ffffff;fill-opacity:1;stroke:none;stroke-width:1px;stroke-linecap:butt;stroke-linejoin:miter;stroke-opacity:1;font-family:Bitstream Vera Sans"
       d="M 452.96344,392.035 L 453.51331,391.39762 L 456.41072,393.8972 L 455.86087,394.53459 L 452.96344,392.035 z"
       id="text3389" />
    <path
       style="font-size:563.4520874px;font-style:normal;font-weight:normal;text-align:start;line-height:125%;text-anchor:start;fill:#ffffff;fill-opacity:1;stroke:none;stroke-width:1px;stroke-linecap:butt;stroke-linejoin:miter;stroke-opacity:1;font-family:Bitstream Vera Sans"
       d="M 454.83101,389.62109 L 455.25672,388.89488 L 457.89764,390.443 L 458.86244,388.79715 L 459.52275,389.18422 L 458.13221,391.5563 L 454.83101,389.62109 z"
       id="text3393" />
    <path
       style="font-size:563.4520874px;font-style:normal;font-weight:normal;text-align:start;line-height:125%;text-anchor:start;fill:#ffffff;fill-opacity:1;stroke:none;stroke-width:1px;stroke-linecap:butt;stroke-linejoin:miter;stroke-opacity:1;font-family:Bitstream Vera Sans"
       d="M 456.88615,385.60832 L 457.14976,384.80888 L 460.05702,385.76749 L 460.65444,383.95564 L 461.38133,384.19531 L 460.52032,386.80661 L 456.88615,385.60832 z"
       id="text3397" />
    <path
       style="fill:#ffffff;fill-rule:evenodd;stroke:#000000;stroke-width:0;stroke-linecap:butt;stroke-linejoin:miter;stroke-miterlimit:4;stroke-dasharray:none;stroke-opacity:1"
       d="M 432.93921,384.30674 C 432.94702,384.13842 432.7356,383.7123 432.58747,383.56418 C 432.46951,383.44621 432.33259,383.21075 432.23573,383.01702 C 432.08008,382.70571 431.85468,382.47477 431.72765,382.15721 C 431.58312,381.57761 431.307,380.92788 431.02417,380.28126 C 431.0004,379.9209 430.83479,379.54066 430.78968,379.18695 C 430.75794,378.9381 430.75059,378.70118 430.75059,378.44438 C 430.75059,378.19515 430.78968,377.92243 430.78968,377.66273 C 430.78968,377.311 430.78968,376.95925 430.78968,376.60751 C 430.78968,376.27656 430.946,375.99917 430.946,375.66954 C 430.946,375.44403 431.33403,375.12796 431.41499,374.96606 C 432.35602,374.78147 433.092,374.48196 434.0726,374.37981 C 435.36731,374.41736 435.44391,374.54816 436.10488,374.61431 C 436.71313,374.7322 436.98663,375.10094 437.47276,375.39595 C 437.70956,375.51436 437.36952,375.88709 437.31644,376.09944 C 437.29053,376.28795 437.15063,376.46147 437.07539,376.62649 C 436.82248,377.18138 436.44923,377.64012 436.30028,378.24897 C 436.05929,378.76382 435.94725,378.89482 435.71406,379.53869 C 435.62691,379.71298 435.52852,380.0113 435.43823,380.19185 C 435.33912,380.39009 435.38789,381.16521 435.44048,381.37556 C 435.50951,381.65172 435.48832,381.92504 435.5968,382.1963 C 435.6274,382.27279 435.64892,382.35262 435.67497,382.43079 C 435.72338,382.63012 435.77565,382.82381 435.83096,383.01198 C 436.03703,383.71301 436.28546,384.33758 436.53478,384.89297 C 436.70888,385.2992 436.94567,385.4412 436.44539,385.31614 C 436.22716,385.26157 436.25329,385.19771 436.14396,385.08839 C 436.02073,384.96515 435.86461,384.88863 435.71406,384.77572 C 435.56039,384.66047 435.47699,384.49959 435.36231,384.3849 C 435.13412,384.15671 435.08085,383.90803 434.81517,383.64233 C 434.6664,382.87465 434.06639,382.09023 433.68178,381.29739 C 433.52599,380.98584 433.31878,380.72772 433.1737,380.43758 C 433.06327,380.2167 432.9168,380.07434 432.86104,379.85135 C 432.77993,379.52693 432.82196,379.04819 432.82196,378.67887 C 432.75147,378.06433 432.69873,377.6405 432.90013,377.07651 C 432.93948,376.28208 433.54296,376.44533 434.0726,376.49026 C 434.41877,376.49026 434.58128,376.47118 434.81517,376.6466 C 435.35055,377.04813 435.08874,376.99121 435.08874,377.58456 C 435.08874,377.86449 435.03459,378.13078 434.89332,378.36621 C 434.73351,378.63258 434.61472,378.96251 434.46341,379.26511 C 434.44059,379.31076 434.42434,378.83275 434.42434,378.71796 C 434.42434,378.42216 434.17527,378.24407 433.95536,378.28804 C 433.60885,378.35734 433.58855,378.52111 433.44728,378.87429 C 433.36143,379.08891 433.52115,379.47816 433.56452,379.69501 C 433.67866,380.24436 434.10383,380.66224 434.61975,380.43758 C 434.77573,380.28158 434.9324,380.058 434.9324,379.85135 C 434.9324,379.57865 435.10115,379.2927 435.20598,379.03061 C 435.33082,378.71853 435.47372,378.36294 435.63589,378.09264 C 435.81454,377.59228 436.13488,377.10362 435.8313,376.49026 C 435.62899,376.01937 435.41591,375.65116 434.9324,375.5132 C 434.74713,375.47615 434.1017,375.48229 433.91627,375.5132 C 433.29882,375.53127 432.79986,375.73044 432.19664,375.86494 C 432.00091,375.91388 432.01178,376.17448 431.96214,376.37302 C 431.89266,376.65099 431.87565,376.9535 431.80582,377.23282 C 431.71852,377.58204 431.85831,378.03957 431.72765,378.36621 C 431.6286,378.61383 431.63792,379.20289 431.76674,379.46052 C 431.92218,379.7714 431.97712,380.14489 432.19664,380.43758 C 432.57852,380.94675 432.66861,381.51606 433.05645,382.00087 C 433.3243,382.3357 433.38474,382.61837 433.56452,382.97793 C 433.59058,383.03005 433.61663,383.08216 433.64269,383.13426 C 433.84835,383.54557 434.29725,384.05257 434.5025,384.46307 C 434.64531,384.74868 434.95099,385.08277 435.16691,385.24471 C 435.40856,385.42595 435.60173,385.671 435.79223,385.90911 C 437.0349,386.71226 437.90457,386.82874 438.33258,386.45627 C 438.53993,386.2489 438.09868,385.92254 438.01992,385.87003 C 437.65823,385.52766 437.38914,385.007 437.19918,384.42398 C 437.09461,384.00568 436.88158,383.59335 436.69111,383.21243 C 436.48507,382.60139 436.28863,381.98617 436.26122,381.33648 C 436.26122,380.98714 436.23378,380.73109 436.30028,380.39849 C 436.38096,379.61726 437.11483,378.91927 437.24051,378.33162 C 437.42791,378.08175 437.55451,377.88291 437.6291,377.58456 C 438.19171,377.10239 438.63803,376.24518 438.88872,375.47187 C 438.94222,375.25784 438.60506,375.00297 438.52799,374.8488 C 438.44832,374.68947 438.14769,374.46851 437.98084,374.30165 C 437.81572,374.13653 437.78019,373.94467 437.6291,373.79358 C 437.47475,373.63923 437.18676,373.42851 437.00377,373.52001 C 436.77928,373.63224 436.73443,373.87175 436.45662,373.87175 C 436.23516,373.87175 436.01369,373.87175 435.79223,373.87175 C 435.42128,373.87175 435.02269,373.7491 434.65883,373.67633 C 434.40161,373.62488 433.87166,373.47815 433.64269,373.36368 C 433.43755,373.26111 433.11683,373.3516 432.86104,373.40276 C 431.55878,373.68942 430.20324,373.19375 430.12528,374.77064 C 430.00719,375.43283 429.82273,376.01831 429.78141,376.68369 C 429.72654,377.56701 429.79549,378.53151 429.77353,379.42144 C 429.77353,379.7773 429.84269,380.08287 429.96895,380.39849 C 430.14,380.82614 430.41854,381.20985 430.59426,381.64914 C 431.29461,382.68108 431.91618,383.46572 432.5093,384.11132 C 432.72287,384.27151 432.54726,383.91479 432.93921,384.30674 z"
       id="path3419"
       sodipodi:nodetypes="cssccssssscccccsccssscscssssccsscccsssssssccsscccccssssssssssccccccccccssssssssccscsccc" />
    <path
       style="fill:#ffffff;fill-rule:evenodd;stroke:#000000;stroke-width:0;stroke-linecap:butt;stroke-linejoin:miter;stroke-miterlimit:4;stroke-dasharray:none;stroke-opacity:1"
       d="M 434.71994,371.68627 L 432.86015,370.15712 C 432.79127,370.17088 432.72239,370.18466 432.65351,370.19844 C 431.98919,370.36628 430.71798,370.25219 430.1738,370.61173 C 429.26987,371.12665 428.67529,372.04018 428.02471,372.67816 C 427.81433,372.78334 427.90697,373.28247 427.81807,373.50472 C 427.66378,373.89048 427.69074,374.33966 427.52878,374.74458 C 427.35564,375.17739 427.36346,375.83219 427.36346,376.31505 C 427.36346,377.03377 427.40478,377.74879 427.40478,378.46414 C 427.40478,378.97054 427.53047,379.91737 427.65275,380.40658 C 427.64201,381.76291 430.70917,384.91577 432.44687,387.92837 C 432.69509,388.42481 432.86515,388.43202 433.31476,388.50695 C 433.41085,388.52297 433.50764,388.53451 433.60407,388.5483 C 434.2322,388.63803 434.57525,389.00291 435.21587,389.00291 C 435.54991,389.00291 435.89408,389.17246 436.20775,389.25087 C 436.52717,389.33072 437.02786,389.2922 437.36494,389.2922 C 437.91727,389.2922 438.50133,389.25087 439.05942,389.25087 C 439.35842,389.25087 439.67231,389.31463 439.92732,389.25087 C 440.19328,389.18438 440.57115,389.25087 440.83654,389.25087 C 441.11449,389.25087 441.4786,389.12688 441.78711,389.12688 C 441.98787,389.12688 442.34293,388.62352 442.53102,388.5483 C 442.98078,388.36839 443.2052,387.86549 443.44024,387.47375 C 443.61193,387.18759 443.77276,386.88756 443.85353,386.56452 C 443.93349,386.24467 443.85701,385.94547 443.52289,385.86194 C 443.22744,385.78807 443.18211,385.64242 442.90297,385.57263 C 442.61743,385.50125 442.45498,385.48462 442.24172,385.32467 C 441.86903,385.04516 441.41636,384.75531 441.04318,384.45677 C 440.67421,384.16159 440.25894,383.89933 439.80334,383.67152 C 439.518,383.52885 439.49539,383.36613 439.22474,383.42355 C 438.96288,383.4791 438.82218,382.7969 438.93544,382.26636 C 439.01865,381.87657 438.84312,381.80824 438.7288,381.52245 C 438.45823,380.86377 438.13632,381.20859 438.81146,380.61322 C 439.25095,380.2836 439.61351,379.37289 439.886,378.91875 C 440.33247,378.25287 440.94324,377.49036 440.96054,376.811 C 441.18183,376.44218 441.43345,375.60302 441.3325,375.19919 C 441.30081,374.71729 440.77746,373.80928 440.34061,373.00877 C 439.63534,372.5829 439.54957,371.33787 438.85278,371.02501 C 438.67159,370.98878 438.39125,371.03708 438.27419,371.06634 C 438.09397,371.11139 437.84112,371.72759 437.65426,371.72759 C 438.30337,372.41195 438.77634,373.14965 439.26607,373.83535 C 439.63577,374.58553 440.06319,375.04445 440.00998,375.90177 C 439.90345,377.03823 439.10446,378.14248 438.81146,378.62946 C 438.77012,378.71211 438.35684,379.24938 438.31551,379.33204 C 438.15068,379.6617 438.10628,379.6265 437.98487,379.86931 C 437.87046,380.09815 437.67951,380.35606 437.57161,380.57189 C 437.46144,380.79222 437.56305,381.52104 437.61293,381.77042 C 437.68588,382.13524 437.97546,382.06337 438.06754,382.43167 C 438.14151,382.72753 438.06754,383.15887 438.06754,383.46489 C 438.06754,383.72954 438.10887,384.22289 438.10887,384.49809 C 438.10887,384.77008 438.51057,384.56752 438.7288,384.62209 C 439.0999,384.71486 439.18843,385.16437 439.63803,385.32467 C 440.03531,385.46632 440.8265,386.18503 441.16718,386.44053 C 441.49931,386.68964 441.19284,386.29653 441.08452,386.72983 C 439.92464,387.56826 438.40999,387.6575 436.993,387.5564 C 434.17811,387.31938 433.98523,387.5889 432.90148,386.31656 C 431.52526,384.39326 430.09937,382.55387 428.7273,380.36524 C 428.68242,378.97514 428.71816,377.31066 428.80996,375.90177 C 428.80996,375.10203 429.0166,374.95991 429.0166,374.16597 C 429.21424,373.04673 430.18383,372.35145 431.0417,372.05823 C 432.25455,371.72564 433.47916,371.68627 434.71994,371.68627 z"
       id="path3930"
       sodipodi:nodetypes="cccccssssccssssssssssssssssssscccccccsccccsssssssssscccccccc" />
    <path
       style="fill:#ffffff;fill-rule:evenodd;stroke:#000000;stroke-width:0;stroke-linecap:butt;stroke-linejoin:miter;stroke-miterlimit:4;stroke-dasharray:none;stroke-opacity:1"
       d="M 432.13404,369.62873 C 431.67376,369.41327 431.12135,369.48793 430.64637,369.56542 C 430.49932,369.53601 431.05912,369.27104 431.15281,369.15393 C 431.33931,368.92079 431.6635,368.85111 431.94412,368.7108 C 432.35769,368.76 432.9862,368.96482 433.40013,369.12229 C 433.78186,369.21771 434.29634,369.3755 434.69788,369.3755 C 436.1298,368.05543 437.8069,366.72019 439.44574,365.48225 C 439.70253,365.38179 441.91348,365.06332 442.51602,365.07076 C 442.92833,365.27692 443.39024,365.09289 443.62386,365.48225 C 444.03579,366.071 445.00174,366.9101 444.85831,367.3814 C 444.84998,367.97115 444.67168,368.57475 444.51012,369.18559 C 444.50105,369.20371 443.61166,369.24889 443.56055,369.24889 C 443.36009,369.24889 443.15962,369.24889 442.95916,369.24889 C 442.71128,369.24889 442.6323,369.2069 442.57933,369.15393 C 442.96827,368.87991 443.20065,368.66581 443.56055,368.23602 C 443.67364,368.12294 443.53395,367.80802 443.49724,367.69792 C 443.32525,367.20862 443.00086,366.83727 442.86421,366.33688 C 442.15771,366.37757 441.22467,366.35238 440.52192,366.52678 C 440.26773,366.62846 440.0249,366.72183 439.79392,366.90662 C 439.38912,367.33858 439.26741,367.35599 438.62279,368.01445 C 438.69093,368.63655 438.32362,369.22726 438.40122,369.88194 C 438.73617,370.59696 438.58907,370.40666 439.73061,370.51499 C 439.94129,370.53923 440.26239,370.49332 440.37547,370.55081 C 440.41905,370.57295 440.43174,370.61047 440.39532,370.67325 C 440.34985,370.75162 440.37041,371.11301 440.04713,371.27464 C 439.75044,371.42299 439.0496,371.52479 438.71774,371.59118 C 438.66497,371.60172 438.61223,371.61228 438.55947,371.62283 C 438.34336,371.66605 438.23626,371.70646 438.02137,371.74943 C 437.3691,371.82542 437.1663,372.27634 436.7693,372.53129 C 436.50555,372.70067 435.95875,372.66722 435.52084,372.6357 C 435.27399,372.6357 435.2097,372.59092 435.04604,372.50909 C 434.92556,372.44885 434.88778,372.19256 434.85613,372.06596 C 434.82591,371.94508 434.5337,371.71188 434.44466,371.62283 C 434.30726,371.48543 434.16078,371.46554 434.00152,371.30631 C 433.79034,371.09512 433.64497,370.95184 433.40013,370.7682 C 433.2564,370.6604 433.19606,370.5325 433.05194,370.38838 C 432.74101,370.04313 432.59225,369.78273 432.13404,369.62873 z"
       id="path3932"
       sodipodi:nodetypes="ccsccccccccsscccccccccssssscscssssscc" />
  </g>
</svg>
